<?xml version="1.0" encoding="UTF-8"?>
<svg version="1.1" xmlns="http://www.w3.org/2000/svg" width="400" height="400">
<path d="M0 0 C132 0 264 0 400 0 C400 132 400 264 400 400 C268 400 136 400 0 400 C0 268 0 136 0 0 Z " fill="#0050E2" transform="translate(0,0)"/>
<path d="M0 0 C32.5771875 -0.1546875 32.5771875 -0.1546875 65.8125 -0.3125 C72.63526611 -0.35802002 79.45803223 -0.40354004 86.48754883 -0.45043945 C94.90759277 -0.47302246 94.90759277 -0.47302246 98.86650085 -0.47721863 C101.59448368 -0.48482887 104.32125119 -0.50033056 107.04899597 -0.52787781 C137.03032296 -0.8171039 159.11557006 3.70040623 181.125 25.0625 C196.32284079 41.34590084 199.8278646 61.63316344 199.17041016 83.02148438 C198.12992537 101.20760814 188.94429507 118.44598518 176 131 C168.42832157 137.72923931 159.54737888 143.48124954 150 147 C146.34120526 146.6101289 144.60820867 144.98293298 142.05761719 142.42993164 C141.29713074 141.67567398 140.53664429 140.92141632 139.75311279 140.14430237 C138.53727509 138.91465004 138.53727509 138.91465004 137.296875 137.66015625 C136.04019012 136.40421913 136.04019012 136.40421913 134.75811768 135.12290955 C132.98943784 133.3518892 131.22445041 131.57717478 129.46289062 129.79907227 C126.75551612 127.06806427 124.03503002 124.35065653 121.3125 121.63476562 C119.5981637 119.9148542 117.88459528 118.19417695 116.171875 116.47265625 C115.3532196 115.65491226 114.53456421 114.83716827 113.69110107 113.99464417 C112.94322327 113.23723434 112.19534546 112.47982452 111.42480469 111.69946289 C110.76180359 111.0318544 110.09880249 110.36424591 109.41571045 109.67640686 C108 108 108 108 108 106 C108.6798999 105.9906543 109.3597998 105.98130859 110.06030273 105.97167969 C113.18672895 105.91748724 116.31173648 105.83393761 119.4375 105.75 C120.50677734 105.73582031 121.57605469 105.72164063 122.67773438 105.70703125 C132.54225131 105.40536407 139.98976819 102.88274068 147.203125 96.015625 C153.93724515 88.46169892 154.88428977 80.78231688 154.42578125 71.01171875 C154.01959088 66.09052223 152.69914961 62.14310028 150 58 C149.46375 57.113125 148.9275 56.22625 148.375 55.3125 C140.76030014 47.89818697 131.91144011 44.71009993 121.42431641 44.68115234 C120.16479156 44.66608391 120.16479156 44.66608391 118.87982178 44.65071106 C116.12040861 44.61996336 113.3610921 44.6028674 110.6015625 44.5859375 C108.68198825 44.56721908 106.76242218 44.54764516 104.84286499 44.5272522 C99.80251895 44.47599623 94.76214626 44.43633552 89.72167969 44.39910889 C83.66757872 44.3519753 77.61360935 44.29040547 71.55961609 44.23126221 C62.3731307 44.14312963 53.18666952 44.07330816 44 44 C44 64.79 44 85.58 44 107 C54.82951311 106.84234732 54.82951311 106.84234732 65.65820312 106.63964844 C67.03253932 106.62794792 68.40688957 106.61775934 69.78125 106.609375 C70.47444336 106.58891113 71.16763672 106.56844727 71.88183594 106.54736328 C80.32000166 106.54144591 86.01965456 110.57265471 91.86758423 116.35879517 C92.55718231 117.06120331 93.2467804 117.76361145 93.95727539 118.48730469 C95.08332939 119.61007309 95.08332939 119.61007309 96.23213196 120.75552368 C98.69704253 123.21813378 101.14740211 125.69468864 103.59765625 128.171875 C105.31742759 129.896575 107.03801672 131.6204599 108.75938416 133.34356689 C112.36040356 136.95221441 115.95487666 140.56720887 119.54418945 144.1875 C124.13084466 148.81368395 128.72816129 153.4290769 133.32976627 158.0403862 C137.73508423 162.45571181 142.1354659 166.87594272 146.53515625 171.296875 C147.36806749 172.13318199 148.20097874 172.96948898 149.05912971 173.83113861 C151.43280923 176.2164851 153.80301529 178.60522711 156.17211914 180.99511719 C156.86374146 181.68942841 157.55536377 182.38373962 158.26794434 183.09909058 C162.13190061 187.00529814 165.80796979 191.02024596 169.40020084 195.177145 C171.54279349 197.61847377 173.80534715 199.91772687 176.10913086 202.20678711 C176.56857086 202.66476685 177.02801086 203.12274658 177.50137329 203.59460449 C178.48122401 204.57070096 179.46222572 205.54564324 180.44431877 206.51948357 C181.99735542 208.05958462 183.54709502 209.60293917 185.09608459 211.14710999 C188.37372346 214.41342622 191.65533411 217.67573365 194.9375 220.9375 C198.7674861 224.74387507 202.5958221 228.5518809 206.42001534 232.36407661 C207.94920557 233.88677199 209.48136543 235.4064362 211.01365662 236.92601013 C211.93203812 237.84108841 212.85041962 238.75616669 213.79663086 239.69897461 C214.61046738 240.50757431 215.42430389 241.31617401 216.26280212 242.14927673 C218 244 218 244 218 245 C210.61062441 245.11647085 203.22145061 245.20500427 195.83133888 245.25906086 C192.39878258 245.28502161 188.96685978 245.32016534 185.53466797 245.37719727 C181.57787987 245.44252573 177.62133741 245.46629239 173.6640625 245.48828125 C172.44699615 245.51408768 171.22992981 245.5398941 169.97598267 245.56648254 C161.57340121 245.56921707 154.35911702 244.27403869 148.15884399 238.19477844 C146.69791356 236.51199493 145.35105362 234.77147211 144 233 C141.47955922 230.35353718 138.97369582 227.97884229 136.125 225.6875 C133.86066338 223.8328754 131.98682863 221.89075005 130.10693359 219.64916992 C124.75081162 213.4646977 118.929823 207.7242353 113.1640625 201.92578125 C112.55285931 201.31050253 111.94165611 200.69522381 111.31193161 200.06130028 C108.08199043 196.81063145 104.84887754 193.56315474 101.61328125 190.31811523 C98.29084069 186.98458053 94.98025548 183.63952196 91.67212868 180.29179096 C89.10674647 177.70017808 86.5324357 175.11757257 83.95569992 172.53725243 C82.73163001 171.30834089 81.51091267 170.07607971 80.29378128 168.84029579 C55.39477779 143.58328654 44.81166779 151.80020835 0 151 C0 101.17 0 51.34 0 0 Z " fill="#FCFEFD" transform="translate(98,84)"/>
<path d="M0 0 C-5.32814109 5.92755697 -10.44338009 9.4811267 -18 12 C-19.84610532 12.08239169 -21.69505164 12.10743359 -23.54296875 12.09765625 C-24.61611328 12.09443359 -25.68925781 12.09121094 -26.79492188 12.08789062 C-27.91447266 12.07951172 -29.03402344 12.07113281 -30.1875 12.0625 C-31.31865234 12.05798828 -32.44980469 12.05347656 -33.61523438 12.04882812 C-36.41021192 12.03703497 -39.2050705 12.01972417 -42 12 C-37.37858654 17.40566376 -32.58339749 22.55484616 -27.53515625 27.5625 C-26.85698349 28.23925781 -26.17881073 28.91601562 -25.48008728 29.61328125 C-23.34325695 31.74457675 -21.20295177 33.87234218 -19.0625 36 C-17.60067877 37.45679779 -16.13908813 38.91382701 -14.67773438 40.37109375 C-11.121146 43.91673973 -7.56143984 47.45922739 -4 51 C-7.01031744 51.93423645 -7.86650268 52.04449911 -11 51 C-14.11785113 51.64644661 -14.11785113 51.64644661 -15 54 C-16.485 54.495 -16.485 54.495 -18 55 C-17.67495741 59.82194643 -17.67495741 59.82194643 -15.4375 63.9375 C-14.963125 64.288125 -14.48875 64.63875 -14 65 C-14.33 65.66 -14.66 66.32 -15 67 C-24.9 57.1 -34.8 47.2 -45 37 C-44.01 36.505 -44.01 36.505 -43 36 C-42.01 36.33 -41.02 36.66 -40 37 C-40 37.99 -40 38.98 -40 40 C-38.35 40.66 -36.7 41.32 -35 42 C-34.896875 41.360625 -34.79375 40.72125 -34.6875 40.0625 C-34.460625 39.381875 -34.23375 38.70125 -34 38 C-32.515 37.505 -32.515 37.505 -31 37 C-31.495 35.515 -31.495 35.515 -32 34 C-31.34 34 -30.68 34 -30 34 C-29.67 34.33 -29.34 34.66 -29 35 C-28.67 34.34 -28.34 33.68 -28 33 C-27.01 33 -26.02 33 -25 33 C-26.24034412 31.67837119 -27.49268626 30.36799547 -28.75 29.0625 C-29.44609375 28.33160156 -30.1421875 27.60070312 -30.859375 26.84765625 C-33.01262819 24.98910012 -34.17482428 24.18399254 -37 24 C-37.66 24.66 -38.32 25.32 -39 26 C-39.061875 25.071875 -39.12375 24.14375 -39.1875 23.1875 C-39.65547246 19.80069894 -39.65547246 19.80069894 -42.5625 18.4375 C-43.366875 17.963125 -44.17125 17.48875 -45 17 C-45.3125 14.3125 -45.3125 14.3125 -45 12 C-44.01 11.67 -43.02 11.34 -42 11 C-41.67 10.01 -41.34 9.02 -41 8 C-40.25427734 8.02094727 -39.50855469 8.04189453 -38.74023438 8.06347656 C-35.32696275 8.14716634 -31.91390776 8.19882794 -28.5 8.25 C-26.74042969 8.30027344 -26.74042969 8.30027344 -24.9453125 8.3515625 C-17.85181029 8.43126477 -12.90962708 8.10231394 -7 4 C-6.26055157 1.93245177 -6.26055157 1.93245177 -6 0 C-2.25 -1.125 -2.25 -1.125 0 0 Z " fill="#0450E0" transform="translate(248,178)"/>
<path d="M0 0 C0.33 0.66 0.66 1.32 1 2 C1.66 2.33 2.32 2.66 3 3 C2.67 51.18 2.34 99.36 2 149 C19.16 148.67 36.32 148.34 54 148 C54.99 148.66 55.98 149.32 57 150 C58.7842612 150.29829754 60.57783435 150.54320286 62.375 150.75 C66.3168101 151.39047905 68.54298221 151.89229594 71.0625 155.0625 C71.701875 156.031875 72.34125 157.00125 73 158 C73.66 158.33 74.32 158.66 75 159 C75 159.66 75 160.32 75 161 C75.66 161.33 76.32 161.66 77 162 C76.34 162.66 75.68 163.32 75 164 C74.12988281 163.18595703 74.12988281 163.18595703 73.2421875 162.35546875 C51.92780934 142.83487489 34.48118005 151.61573536 0 151 C0 101.17 0 51.34 0 0 Z " fill="#BEDAF3" transform="translate(98,84)"/>
<path d="M0 0 C21.14179905 -0.12032643 21.14179905 -0.12032643 30.1796875 -0.14648438 C36.33764436 -0.16439176 42.49546691 -0.18553706 48.65332031 -0.22631836 C53.62000497 -0.25900372 58.58654552 -0.2768724 63.55332947 -0.28463173 C65.44467943 -0.29015878 67.33602185 -0.3009517 69.22731018 -0.31719017 C71.88413304 -0.33908652 74.54036651 -0.34196185 77.19726562 -0.34057617 C78.36036758 -0.35675491 78.36036758 -0.35675491 79.54696655 -0.3732605 C84.97257986 -0.34280209 89.00984866 0.86105155 94 3 C91 4 91 4 88 3 C85.24749022 2.87988446 82.51839333 2.81465267 79.76489258 2.79467773 C78.92564743 2.78477814 78.08640228 2.77487854 77.22172546 2.76467896 C74.44602282 2.73307604 71.67030305 2.70831126 68.89453125 2.68359375 C66.97067315 2.66302318 65.04681957 2.64202668 63.12297058 2.62062073 C58.05790864 2.56541068 52.99280598 2.51599666 47.92767334 2.46777344 C41.85115349 2.40872146 35.77470811 2.34249933 29.69824982 2.27747345 C20.46554533 2.17947735 11.23279322 2.09061209 2 2 C2 21.47 2 40.94 2 61 C12.82951311 60.84234732 12.82951311 60.84234732 23.65820312 60.63964844 C33.2023849 60.51996655 39.53611912 61.09410423 47 67.625 C49 70 49 70 49 72 C49.928125 72.185625 49.928125 72.185625 50.875 72.375 C53.70422422 73.20712477 54.93690484 74.93690484 57 77 C57 77.99 57 78.98 57 80 C57.66 80 58.32 80 59 80 C59.66 81.98 60.32 83.96 61 86 C57.43725696 83.10009288 54.07814301 80.11656277 50.88671875 76.8125 C50.33008545 76.23910889 49.77345215 75.66571777 49.19995117 75.07495117 C48.08563926 73.91967073 46.97995143 72.75599539 45.8840332 71.58325195 C45.35511475 71.03628662 44.82619629 70.48932129 44.28125 69.92578125 C43.81783203 69.43505127 43.35441406 68.94432129 42.87695312 68.4387207 C37.60436258 64.39717855 32.37562896 63.54637136 25.87890625 63.48828125 C25.2175769 63.47164429 24.55624756 63.45500732 23.87487793 63.43786621 C21.437732 63.38064833 19.00005959 63.34796 16.5625 63.3125 C11.096875 63.209375 5.63125 63.10625 0 63 C0 42.21 0 21.42 0 0 Z " fill="#3269C0" transform="translate(142,128)"/>
<path d="M0 0 C10.54308484 8.84160717 10.54308484 8.84160717 13.6875 13.5 C18.72593373 18.94695538 25.04341271 21.24857121 32.36767578 21.65942383 C34.7265915 21.70005456 37.08605966 21.71479411 39.4453125 21.70703125 C40.69633759 21.72215256 41.94736267 21.73727386 43.23629761 21.75285339 C46.52764562 21.78831712 49.81817301 21.80287134 53.10968018 21.80688477 C56.48214157 21.81628137 59.85428612 21.85373466 63.2265625 21.88867188 C69.81771573 21.95135154 76.40857241 21.98642436 83 22 C82.67 22.66 82.34 23.32 82 24 C78.7 24 75.4 24 72 24 C71.505 25.485 71.505 25.485 71 27 C69.93040039 26.99476318 68.86080078 26.98952637 67.75878906 26.98413086 C63.7854903 26.96601285 59.81219519 26.9545431 55.83886719 26.94506836 C54.12011094 26.9400437 52.40135895 26.9332229 50.68261719 26.92456055 C48.21027574 26.9124132 45.73799088 26.90675297 43.265625 26.90234375 C42.49881409 26.89718246 41.73200317 26.89202118 40.94195557 26.88670349 C36.88717884 26.86830233 36.88717884 26.86830233 32.90570068 27.53443909 C30.62039043 28.09273827 29.21281299 27.71126132 27 27 C27 26.34 27 25.68 27 25 C23.70924004 25.37904208 23.70924004 25.37904208 21 27 C19.33382885 27.04063832 17.66611905 27.042721 16 27 C16.33 26.01 16.66 25.02 17 24 C17.99 23.67 18.98 23.34 20 23 C20 22.34 20 21.68 20 21 C18.37766943 19.77457747 18.37766943 19.77457747 16.3125 18.625 C12.99308758 16.62038149 9.84317735 14.66547877 7 12 C7 11.01 7 10.02 7 9 C6.01 9 5.02 9 4 9 C4 8.34 4 7.68 4 7 C3.01 7 2.02 7 1 7 C0.67 4.69 0.34 2.38 0 0 Z " fill="#0451D4" transform="translate(232,307)"/>
<path d="M0 0 C7.68629576 -0.07627947 15.3724933 -0.12869635 23.05908203 -0.16479492 C25.67207487 -0.17984933 28.28504258 -0.2002973 30.89794922 -0.22631836 C34.66119605 -0.26284778 38.42410775 -0.2797604 42.1875 -0.29296875 C43.34926758 -0.30845261 44.51103516 -0.32393646 45.70800781 -0.33988953 C61.04591651 -0.3430475 68.87232287 6.67356189 79.32841492 17.09539986 C81.26360526 19.0372065 83.19437876 20.98333889 85.125 22.9296875 C86.48076203 24.28918523 87.83697042 25.64823796 89.19360352 27.00686646 C92.74239306 30.56324863 96.28513199 34.12559808 99.82659912 37.68927002 C103.44973971 41.33296368 107.07863322 44.97091802 110.70703125 48.609375 C117.81029537 55.73401183 124.90717381 62.86497283 132 70 C129 71 129 71 126 70 C124.9858813 68.00712186 123.98793315 66.00598806 123 64 C120.88276199 61.43499124 120.88276199 61.43499124 118.39257812 59.00439453 C117.93854111 58.54510056 117.48450409 58.08580658 117.01670837 57.6125946 C115.52896081 56.11174965 114.03063809 54.62202137 112.53125 53.1328125 C111.4885342 52.08807406 110.44626393 51.04289078 109.40441895 49.99728394 C107.22708943 47.8155459 105.0444619 45.63929107 102.85791016 43.46679688 C100.05319379 40.67923536 97.26224647 37.87833478 94.47507477 35.07324409 C92.32896559 32.91631169 90.17578414 30.76655415 88.02037048 28.61892319 C86.9879065 27.58846195 85.95767056 26.55576339 84.92970276 25.5208168 C83.49619208 24.07970944 82.05205348 22.64919731 80.60742188 21.21923828 C79.78818237 20.40238556 78.96894287 19.58553284 78.12487793 18.743927 C76.0716504 16.68279415 76.0716504 16.68279415 73 17 C72.505 18.485 72.505 18.485 72 20 C69.5 18.625 69.5 18.625 67 17 C67 16.34 67 15.68 67 15 C66.01 14.67 65.02 14.34 64 14 C64.33 12.02 64.66 10.04 65 8 C63.68 7.67 62.36 7.34 61 7 C60.505 5.02 60.505 5.02 60 3 C52.97102662 2.09934267 46.04709098 1.79430442 38.96484375 1.68359375 C37.84557999 1.66281265 36.72631622 1.64203156 35.57313538 1.62062073 C32.02798084 1.55568639 28.4827577 1.49650334 24.9375 1.4375 C22.52147752 1.39426131 20.10546177 1.35064539 17.68945312 1.30664062 C11.79303947 1.20006322 5.89655887 1.09819683 0 1 C0 0.67 0 0.34 0 0 Z " fill="#074FD8" transform="translate(99,235)"/>
<path d="M0 0 C11.05753025 -0.06966277 22.11500786 -0.12289382 33.17271328 -0.15543652 C38.30784828 -0.17105929 43.44283257 -0.1922355 48.57788086 -0.22631836 C53.53808628 -0.25903285 58.4981472 -0.27687848 63.45845222 -0.28463173 C65.34618465 -0.29015358 67.2339096 -0.30093625 69.12158012 -0.31719017 C71.77580426 -0.33912536 74.42943933 -0.34196025 77.08374023 -0.34057617 C77.85554626 -0.351362 78.62735229 -0.36214783 79.42254639 -0.3732605 C87.89264523 -0.32579971 95.71484733 2.18505826 102 8 C107.82851319 14.60152555 109.33893266 21.10870968 109.25 29.75 C109.26160156 30.90048828 109.26160156 30.90048828 109.2734375 32.07421875 C109.25349978 37.74650022 109.25349978 37.74650022 107 40 C107.04640625 39.14019531 107.0928125 38.28039062 107.140625 37.39453125 C107.40649129 28.68741026 106.54807818 21.03360845 103 13 C102.03053145 11.9703735 101.03791391 10.96059081 100 10 C100 9.34 100 8.68 100 8 C94.17117223 6.67819982 94.17117223 6.67819982 88.3125 5.5 C86 5 86 5 83.35702515 3.98867798 C79.50843503 2.85522913 75.94855452 2.69296729 71.97509766 2.68115234 C71.19393585 2.67110672 70.41277405 2.6610611 69.60794067 2.65071106 C67.04332164 2.61998716 64.47880648 2.60287418 61.9140625 2.5859375 C60.12900913 2.56721715 58.34396452 2.54764309 56.55892944 2.5272522 C51.87368956 2.47601657 47.18842102 2.43634506 42.50305176 2.39910889 C37.71680663 2.35901543 32.93067986 2.30794749 28.14453125 2.2578125 C18.76310408 2.16115471 9.38160995 2.07671755 0 2 C0 1.34 0 0.68 0 0 Z " fill="#094ED6" transform="translate(144,130)"/>
<path d="M0 0 C14.13844735 0.2104505 14.13844735 0.2104505 17.3125 3.375 C19 6 19 6 20 9 C20.804375 9.309375 21.60875 9.61875 22.4375 9.9375 C25 11 25 11 26.3125 13.125 C26.6528125 14.053125 26.6528125 14.053125 27 15 C27.99 15 28.98 15 30 15 C30.33 14.34 30.66 13.68 31 13 C31.25394531 13.54269531 31.50789063 14.08539063 31.76953125 14.64453125 C32.11371094 15.35996094 32.45789063 16.07539062 32.8125 16.8125 C33.14894531 17.52019531 33.48539062 18.22789063 33.83203125 18.95703125 C34.91413325 21.05757461 34.91413325 21.05757461 36.63671875 22.63671875 C38 24 38 24 38 26 C38.99 26 39.98 26 41 26 C41.58333333 27.3125 42.16666667 28.625 42.75 29.9375 C43.11480469 30.75734375 43.47960937 31.5771875 43.85546875 32.421875 C44.59016767 34.0768282 45.32217587 35.73298004 46.05078125 37.390625 C46.38464844 38.14859375 46.71851563 38.9065625 47.0625 39.6875 C47.36285156 40.37199219 47.66320312 41.05648437 47.97265625 41.76171875 C48.76430592 43.48649161 49.63908515 45.17326995 50.546875 46.83984375 C56.51300519 59.81457311 54.9148285 79.33616203 53 93 C52.67 93.66 52.34 94.32 52 95 C51.34 95 50.68 95 50 95 C49.896875 96.010625 49.79375 97.02125 49.6875 98.0625 C48.96295233 102.21218208 47.77730734 105.21356263 46 109 C45.34 109 44.68 109 44 109 C43.731875 109.7425 43.46375 110.485 43.1875 111.25 C42.05770579 113.86636554 40.79106798 115.80187111 39 118 C38.01 117.505 38.01 117.505 37 117 C37.37511719 116.48953125 37.75023437 115.9790625 38.13671875 115.453125 C50.18875437 98.3313414 54.00545818 77.1300481 50.59277344 56.54345703 C49.51827018 51.82206074 47.89501447 47.45003398 46 43 C45.54238281 41.91460937 45.08476562 40.82921875 44.61328125 39.7109375 C35.5877334 20.17619009 19.56886567 8.5989066 0 1 C0 0.67 0 0.34 0 0 Z " fill="#2457B6" transform="translate(245,87)"/>
<path d="M0 0 C0.99 0 1.98 0 3 0 C3 0.66 3 1.32 3 2 C3.72712283 1.83775783 4.45424566 1.67551565 5.20340252 1.50835705 C7.79528858 1.03721182 10.11772488 0.87178834 12.74555969 0.86628723 C13.67169571 0.86202225 14.59783173 0.85775726 15.55203247 0.85336304 C17.0582869 0.85404282 17.0582869 0.85404282 18.5949707 0.85473633 C20.19611473 0.84969841 20.19611473 0.84969841 21.8296051 0.84455872 C25.36167566 0.83505522 28.8936987 0.83310532 32.42578125 0.83203125 C34.89137288 0.82881619 37.35696431 0.82545193 39.82255554 0.82194519 C44.99832602 0.81595396 50.17407981 0.81410508 55.34985352 0.81469727 C61.94528008 0.81479841 68.54059784 0.8011952 75.13599873 0.78392506 C80.23476134 0.77273692 85.33349833 0.77078021 90.43227196 0.77130699 C92.86125244 0.77013524 95.29023376 0.76575923 97.71920204 0.75797462 C110.63900731 0.72047312 123.22968362 0.88273657 136 3 C136 3.33 136 3.66 136 4 C68.185 3.505 68.185 3.505 -1 3 C-0.67 2.01 -0.34 1.02 0 0 Z " fill="#054FD1" transform="translate(104,80)"/>
<path d="M0 0 C-5.32814109 5.92755697 -10.44338009 9.4811267 -18 12 C-19.84610532 12.08239169 -21.69505164 12.10743359 -23.54296875 12.09765625 C-24.61611328 12.09443359 -25.68925781 12.09121094 -26.79492188 12.08789062 C-27.91447266 12.07951172 -29.03402344 12.07113281 -30.1875 12.0625 C-31.31865234 12.05798828 -32.44980469 12.05347656 -33.61523438 12.04882812 C-36.41020927 12.03703498 -39.2050782 12.0205765 -42 12 C-36.22953099 18.8771514 -29.93066326 25.18640629 -23.5625 31.5 C-22.5342702 32.52320139 -21.50627374 33.54663733 -20.47851562 34.5703125 C-17.98835662 37.04957999 -15.49507167 39.52567538 -13 42 C-16 42 -16 42 -17.83764648 40.45532227 C-18.50868408 39.74947998 -19.17972168 39.0436377 -19.87109375 38.31640625 C-20.61037109 37.55392578 -21.34964844 36.79144531 -22.11132812 36.00585938 C-23.6583014 34.38095293 -25.20517689 32.75595339 -26.75195312 31.13085938 C-27.49251953 30.36708984 -28.23308594 29.60332031 -28.99609375 28.81640625 C-29.66825928 28.10943604 -30.3404248 27.40246582 -31.03295898 26.67407227 C-33.09824778 24.91638513 -34.30110256 24.19646877 -37 24 C-37.66 24.66 -38.32 25.32 -39 26 C-39.061875 25.071875 -39.12375 24.14375 -39.1875 23.1875 C-39.65547246 19.80069894 -39.65547246 19.80069894 -42.5625 18.4375 C-43.366875 17.963125 -44.17125 17.48875 -45 17 C-45.3125 14.3125 -45.3125 14.3125 -45 12 C-44.01 11.67 -43.02 11.34 -42 11 C-41.67 10.01 -41.34 9.02 -41 8 C-40.25427734 8.02094727 -39.50855469 8.04189453 -38.74023438 8.06347656 C-35.32696275 8.14716634 -31.91390776 8.19882794 -28.5 8.25 C-26.74042969 8.30027344 -26.74042969 8.30027344 -24.9453125 8.3515625 C-17.85181029 8.43126477 -12.90962708 8.10231394 -7 4 C-6.26055157 1.93245177 -6.26055157 1.93245177 -6 0 C-2.25 -1.125 -2.25 -1.125 0 0 Z " fill="#1750B8" transform="translate(248,178)"/>
<path d="M0 0 C5.64426769 4.68354127 11.0058046 9.6207646 16 15 C16 15.33 16 15.66 16 16 C8.48958306 16.04632915 0.97918094 16.08187214 -6.53134632 16.10362434 C-10.01875161 16.11406404 -13.50605916 16.12822649 -16.9934082 16.15087891 C-21.00212546 16.17675512 -25.01073997 16.18647123 -29.01953125 16.1953125 C-30.27272659 16.20563507 -31.52592194 16.21595764 -32.8170929 16.22659302 C-34.55855843 16.22681961 -34.55855843 16.22681961 -36.33520508 16.22705078 C-37.87075798 16.23371262 -37.87075798 16.23371262 -39.43733215 16.24050903 C-42 16 -42 16 -45 14 C-27.51 13.67 -10.02 13.34 8 13 C8 12.01 8 11.02 8 10 C6.50308577 8.76341868 5.00273418 7.53012864 3.46875 6.33984375 C1.46291966 4.51005703 0.73645246 2.5775836 0 0 Z " fill="#C8E4FD" transform="translate(300,313)"/>
<path d="M0 0 C3.86081888 0.52864505 5.93092515 1.40061878 8.78515625 4.04125977 C9.81793701 4.9911528 9.81793701 4.9911528 10.87158203 5.9602356 C14.43770084 9.37781725 17.95725928 12.83480293 21.4375 16.33984375 C22.20304199 17.10680069 22.96858398 17.87375763 23.75732422 18.66395569 C26.17393197 21.08610881 28.58701726 23.51173612 31 25.9375 C32.64950686 27.59202893 34.29924429 29.24632802 35.94921875 30.90039062 C39.96881371 34.93094202 43.98553169 38.96434272 48 43 C47.34 43.66 46.68 44.32 46 45 C43.5625 44.3125 43.5625 44.3125 41 43 C40.1875 40.375 40.1875 40.375 40 38 C39.4225 38.2475 38.845 38.495 38.25 38.75 C37.5075 38.8325 36.765 38.915 36 39 C33.22666082 36.78132865 32.13126558 35.39379675 31 32 C30.34 31.67 29.68 31.34 29 31 C28.731875 30.071875 28.46375 29.14375 28.1875 28.1875 C26.74908059 24.32647947 25.25813633 23.46170301 22 21 C20.87303298 19.74934148 19.77084141 18.47613213 18.6875 17.1875 C15.58394671 13.53022905 12.21616087 10.47428686 8.50390625 7.4453125 C8.00761719 6.96835938 7.51132813 6.49140625 7 6 C7 5.34 7 4.68 7 4 C6.030625 3.71125 5.06125 3.4225 4.0625 3.125 C1 2 1 2 0 0 Z " fill="#E0F6FB" transform="translate(176,192)"/>
<path d="M0 0 C4.21592931 1.64393376 7.03022614 4.76355386 10.14550781 7.91845703 C10.75081329 8.52347046 11.35611877 9.12848389 11.97976685 9.75183105 C13.9756645 11.74911999 15.96438799 13.75339558 17.953125 15.7578125 C19.33702668 17.14544502 20.72137112 18.5326361 22.10614014 19.91940308 C25.7470322 23.567926 29.38187778 27.22241552 33.01550293 30.87817383 C36.72545688 34.60859789 40.44108927 38.33335643 44.15625 42.05859375 C51.44307344 49.36685747 58.72352265 56.68143616 66 64 C63 65 63 65 60 64 C58.99216447 62.00393699 57.99341281 60.00328006 57 58 C54.74261183 55.30673003 54.74261183 55.30673003 52.07299805 52.71655273 C51.58476562 52.22627594 51.0965332 51.73599915 50.59350586 51.23086548 C48.99005971 49.62443032 47.37617745 48.02895471 45.76171875 46.43359375 C44.63636335 45.3113003 43.51160156 44.18841132 42.3874054 43.06495667 C40.03404385 40.71618696 37.67587433 38.37239755 35.3137207 36.0324707 C32.29764895 33.04464731 29.29028825 30.04824842 26.28607464 27.04850674 C23.40609955 24.17370838 20.5214655 21.3036024 17.63671875 18.43359375 C17.09253485 17.89129057 16.54835094 17.34898739 15.98767662 16.79025078 C14.43273707 15.24224889 12.87448351 13.69766289 11.31518555 12.15405273 C10.43154831 11.2772435 9.54791107 10.40043427 8.63749695 9.49705505 C6.6871416 7.65055257 4.75605202 5.97601763 2.6678009 4.3028717 C1.78742661 3.54292404 0.90705231 2.78297638 0 2 C0 1.34 0 0.68 0 0 Z " fill="#2057AB" transform="translate(165,241)"/>
<path d="M0 0 C10.54308484 8.84160717 10.54308484 8.84160717 13.6875 13.5 C18.72593373 18.94695538 25.04341271 21.24857121 32.36767578 21.65942383 C34.7265915 21.70005456 37.08605966 21.71479411 39.4453125 21.70703125 C40.69633759 21.72215256 41.94736267 21.73727386 43.23629761 21.75285339 C46.52764562 21.78831712 49.81817301 21.80287134 53.10968018 21.80688477 C56.48214157 21.81628137 59.85428612 21.85373466 63.2265625 21.88867188 C69.81771573 21.95135154 76.40857241 21.98642436 83 22 C83 22.33 83 22.66 83 23 C75.46299247 23.11636152 67.92607924 23.20495042 60.38837528 23.25906086 C56.88741667 23.28504487 53.38707706 23.32023267 49.88647461 23.37719727 C45.85264485 23.44242068 41.81945506 23.46627254 37.78515625 23.48828125 C36.54105484 23.51408768 35.29695343 23.5398941 34.01515198 23.56648254 C26.31561774 23.56894562 21.2956617 22.46349391 15 18 C14.40619034 17.62269241 13.81238068 17.24538483 13.20057678 16.85664368 C10.90385687 15.39266739 8.93001504 13.93001504 7 12 C7 11.01 7 10.02 7 9 C6.01 9 5.02 9 4 9 C4 8.34 4 7.68 4 7 C3.01 7 2.02 7 1 7 C0.67 4.69 0.34 2.38 0 0 Z " fill="#1E53AE" transform="translate(232,307)"/>
<path d="M0 0 C0.20625 0.5775 0.4125 1.155 0.625 1.75 C2.49984809 4.81793324 4.98124294 6.11327684 8 8 C10 10 10 10 10 13 C10.78375 13.28875 11.5675 13.5775 12.375 13.875 C15 15 15 15 17 17 C17.495 17.45375 17.99 17.9075 18.5 18.375 C20 20 20 20 21 22.0625 C21.97325058 24.33242155 21.97325058 24.33242155 25 26 C25 26.66 25 27.32 25 28 C26.32 28 27.64 28 29 28 C30.40568804 29.94982535 31.7295036 31.95950578 33 34 C33.886875 34.86625 34.77375 35.7325 35.6875 36.625 C38.02030439 39.02085316 38.39993298 39.87437617 39 43 C33.68931195 38.56583328 28.75163383 33.88483314 23.87890625 28.9765625 C23.13414536 28.23038666 22.38938446 27.48421082 21.62205505 26.71542358 C19.26649173 24.35430611 16.91444784 21.98971838 14.5625 19.625 C12.95661237 18.01409144 11.35049484 16.40341204 9.74414062 14.79296875 C5.82676487 10.86462487 1.91226513 6.93343326 -2 3 C-1.34 2.67 -0.68 2.34 0 2 C0 1.34 0 0.68 0 0 Z " fill="#1E56B2" transform="translate(277,285)"/>
<path d="M0 0 C14.13844735 0.2104505 14.13844735 0.2104505 17.3125 3.375 C19 6 19 6 20 9 C20.804375 9.309375 21.60875 9.61875 22.4375 9.9375 C25 11 25 11 26.3125 13.125 C26.6528125 14.053125 26.6528125 14.053125 27 15 C27.99 15 28.98 15 30 15 C30.33 14.34 30.66 13.68 31 13 C31.25394531 13.54269531 31.50789063 14.08539063 31.76953125 14.64453125 C32.11371094 15.35996094 32.45789063 16.07539062 32.8125 16.8125 C33.14894531 17.52019531 33.48539062 18.22789063 33.83203125 18.95703125 C34.91413325 21.05757461 34.91413325 21.05757461 36.63671875 22.63671875 C38 24 38 24 38 26 C38.99 26 39.98 26 41 26 C41.66 27.98 42.32 29.96 43 32 C39.55545379 30.575956 38.00068162 28.96579518 35.875 25.9375 C26.44532263 13.43161658 14.35632054 6.57479114 0 1 C0 0.67 0 0.34 0 0 Z " fill="#1756BE" transform="translate(245,87)"/>
<path d="M0 0 C11.66666667 11.66666667 23.33333333 23.33333333 35 35 C31.26879511 35 29.21944311 33.81968524 26 32 C25.67 31.34 25.34 30.68 25 30 C24.34 30 23.68 30 23 30 C21.6043269 28.23505506 20.28163478 26.41191783 19 24.5625 C16.54099616 20.67272925 16.54099616 20.67272925 13 18 C13 17.01 13 16.02 13 15 C12.01 15 11.02 15 10 15 C8.53515625 13.609375 8.53515625 13.609375 7.0625 11.75 C5.31387043 9.58274589 3.68258522 7.70764428 1.625 5.8125 C0 4 0 4 0 0 Z " fill="#E6FAFB" transform="translate(260,272)"/>
<path d="M0 0 C-7.06639901 7.43295573 -11.63208632 10.6332106 -22 11 C-28.33366129 11.09345622 -34.66618155 11.05852604 -41 11 C-41 10.01 -41 9.02 -41 8 C-40.25427734 8.02094727 -39.50855469 8.04189453 -38.74023438 8.06347656 C-35.32696275 8.14716634 -31.91390776 8.19882794 -28.5 8.25 C-26.74042969 8.30027344 -26.74042969 8.30027344 -24.9453125 8.3515625 C-17.85181029 8.43126477 -12.90962708 8.10231394 -7 4 C-6.26055157 1.93245177 -6.26055157 1.93245177 -6 0 C-2.25 -1.125 -2.25 -1.125 0 0 Z " fill="#0551D4" transform="translate(248,178)"/>
<path d="M0 0 C11.40467483 -0.04631607 22.80932732 -0.08186553 34.214077 -0.10362434 C39.50961374 -0.11406684 44.8050862 -0.12823462 50.10058594 -0.15087891 C55.20988854 -0.17259056 60.31912926 -0.18456512 65.42847443 -0.18975449 C67.37893905 -0.19345325 69.32940024 -0.20067589 71.27983856 -0.21146011 C74.00922498 -0.22595267 76.73835481 -0.22797887 79.46777344 -0.22705078 C80.27625732 -0.23424133 81.08474121 -0.24143188 81.91772461 -0.24884033 C85.75163439 -0.23470968 88.75415337 -0.1815693 92 2 C92 2.66 92 3.32 92 4 C90.85776978 3.67657623 89.71553955 3.35315247 88.53869629 3.01992798 C84.1059245 1.91720388 79.93227951 1.6941455 75.38085938 1.68115234 C74.56039124 1.67110672 73.7399231 1.6610611 72.89459229 1.65071106 C70.21098464 1.62007921 67.52747581 1.6029001 64.84375 1.5859375 C62.97187461 1.56720972 61.10000751 1.54763513 59.22814941 1.5272522 C54.32264109 1.47609499 49.41710545 1.43638177 44.51147461 1.39910889 C39.49716525 1.35896596 34.48296793 1.30792071 29.46875 1.2578125 C19.64591223 1.16124771 9.82301095 1.07678112 0 1 C0 0.67 0 0.34 0 0 Z " fill="#E5FDFF" transform="translate(144,127)"/>
<path d="M0 0 C2.0325003 1.72367516 3.98152192 3.4015657 5.7734375 5.375 C5.7734375 6.035 5.7734375 6.695 5.7734375 7.375 C6.3921875 7.49875 7.0109375 7.6225 7.6484375 7.75 C10.47766172 8.58212477 11.71034234 10.31190484 13.7734375 12.375 C13.7734375 13.365 13.7734375 14.355 13.7734375 15.375 C14.4334375 15.375 15.0934375 15.375 15.7734375 15.375 C16.4334375 17.355 17.0934375 19.335 17.7734375 21.375 C14.21069446 18.47509288 10.85158051 15.49156277 7.66015625 12.1875 C7.10352295 11.61410889 6.54688965 11.04071777 5.97338867 10.44995117 C4.85907676 9.29467073 3.75338893 8.13099539 2.6574707 6.95825195 C-2.24970029 1.88364664 -7.14775666 -0.55245366 -14.2265625 -1.625 C-14.2265625 -1.955 -14.2265625 -2.285 -14.2265625 -2.625 C-8.83939419 -4.25747525 -4.55567719 -3.3248451 0 0 Z " fill="#1F57B4" transform="translate(185.2265625,192.625)"/>
<path d="M0 0 C4.2799662 0.4755518 6.19418339 2.91360173 9 6 C10.33333333 7.66666667 11.66666667 9.33333333 13 11 C15.63425224 13.77289709 18.33431403 16.29794373 21.3125 18.6875 C22.199375 19.450625 23.08625 20.21375 24 21 C24 21.66 24 22.32 24 23 C24.66 23 25.32 23 26 23 C26 23.99 26 24.98 26 26 C26.99 26 27.98 26 29 26 C30.71875 27.609375 30.71875 27.609375 32.5 29.75 C33.38171875 30.79414063 33.38171875 30.79414063 34.28125 31.859375 C35.89985026 33.87526805 37.46396189 35.9207289 39 38 C36 38 36 38 33.546875 35.875 C32.60681396 34.92428671 31.67480116 33.96556374 30.75 33 C29.83734375 32.071875 28.9246875 31.14375 27.984375 30.1875 C25.82590109 27.92223882 23.76951288 25.58785649 21.73046875 23.21484375 C17.57444306 18.42749417 13.07938732 14.00659301 8.5625 9.5625 C6.93656196 7.96190783 5.31273413 6.35916813 3.69140625 4.75390625 C2.98185791 4.05595947 2.27230957 3.3580127 1.54125977 2.63891602 C0 1 0 1 0 0 Z " fill="#164DAB" transform="translate(237,248)"/>
<path d="M0 0 C3.71599191 -0.20086443 4.77208445 -0.1519437 8 2 C8 2.66 8 3.32 8 4 C8.66 4 9.32 4 10 4 C10.33 3.34 10.66 2.68 11 2 C13.50298434 4.93828597 14.46930939 7.17902761 15 11 C15.99 10.67 16.98 10.34 18 10 C17.98839844 10.62648437 17.97679687 11.25296875 17.96484375 11.8984375 C17.95582031 12.71570313 17.94679687 13.53296875 17.9375 14.375 C17.92589844 15.18710938 17.91429687 15.99921875 17.90234375 16.8359375 C17.85533666 19.04937142 17.85533666 19.04937142 19 21 C19.12082534 22.66345582 19.1753794 24.33220591 19.1875 26 C19.20167969 26.886875 19.21585938 27.77375 19.23046875 28.6875 C19 31 19 31 17 33 C16.97421875 32.16597656 16.9484375 31.33195312 16.921875 30.47265625 C16.44682277 21.04718821 14.8930933 12.8930933 8 6 C5.910971 4.58588806 3.79463957 3.27574107 1.609375 2.015625 C1.07828125 1.68046875 0.5471875 1.3453125 0 1 C0 0.67 0 0.34 0 0 Z " fill="#DEEEF9" transform="translate(236,131)"/>
<path d="M0 0 C7.15801225 5.82628904 13.52591766 12.4382985 20 19 C16.83457396 19 15.77293901 18.52436826 13.0625 17.0625 C10.38473652 15.62300865 7.97899827 14.63312044 5 14 C4.4375 12.0625 4.4375 12.0625 4 10 C4.33 9.67 4.66 9.34 5 9 C3.68 8.67 2.36 8.34 1 8 C0.17361624 5.10765685 0 3.11257569 0 0 Z " fill="#0951DA" transform="translate(192,269)"/>
<path d="M0 0 C0 0.99 0 1.98 0 3 C-6.03494211 6.46040259 -10.5876393 7.62616292 -17.5 7.75 C-18.32242188 7.77964844 -19.14484375 7.80929688 -19.9921875 7.83984375 C-21.99428533 7.90968437 -23.99714156 7.95720388 -26 8 C-25.67 9.98 -25.34 11.96 -25 14 C-26.15224028 13.07038578 -27.29659176 12.1309875 -28.4375 11.1875 C-29.07558594 10.66542969 -29.71367187 10.14335937 -30.37109375 9.60546875 C-32 8 -32 8 -33 5 C-31.98015015 4.98598145 -31.98015015 4.98598145 -30.93969727 4.97167969 C-27.81327105 4.91748724 -24.68826352 4.83393761 -21.5625 4.75 C-20.49322266 4.73582031 -19.42394531 4.72164062 -18.32226562 4.70703125 C-11.3747096 4.49456776 -6.09650165 3.38792002 0 0 Z " fill="#C3E0F7" transform="translate(239,185)"/>
<path d="M0 0 C5.66129431 4.69766975 10.85228904 9.74723372 16 15 C14.35 16.65 12.7 18.3 11 20 C9.5 18.75 9.5 18.75 8 17 C8 15.68 8 14.36 8 13 C6.48990073 11.22239242 6.48990073 11.22239242 4.5 9.75 C3.8503125 9.22921875 3.200625 8.7084375 2.53125 8.171875 C2.0259375 7.78515625 1.520625 7.3984375 1 7 C1.33 6.34 1.66 5.68 2 5 C1.10636395 2.39068734 1.10636395 2.39068734 0 0 Z " fill="#EAF4F9" transform="translate(224,236)"/>
<path d="M0 0 C1.65 0 3.3 0 5 0 C5.309375 1.0828125 5.309375 1.0828125 5.625 2.1875 C7.39231274 5.80245787 9.90172206 7.48264917 13 10 C13.69580267 11.31836295 14.37224433 12.64791086 15 14 C15.99 14.33 16.98 14.66 18 15 C18 15.66 18 16.32 18 17 C18.8971875 16.6596875 18.8971875 16.6596875 19.8125 16.3125 C20.534375 16.209375 21.25625 16.10625 22 16 C23.75 17.4375 23.75 17.4375 25 19 C24.34 19.33 23.68 19.66 23 20 C23.66 20.99 24.32 21.98 25 23 C20.5092411 21.58861863 18.21788135 19.37485118 15 16 C14.030625 15.21625 13.06125 14.4325 12.0625 13.625 C9.1407173 11.24540378 6.78179758 8.55524664 4.39453125 5.6484375 C3.00351336 3.95325685 3.00351336 3.95325685 1.32421875 2.3515625 C0 1 0 1 0 0 Z " fill="#E0F3F8" transform="translate(230,304)"/>
<path d="M0 0 C7.68629576 -0.07627947 15.3724933 -0.12869635 23.05908203 -0.16479492 C25.67207487 -0.17984933 28.28504258 -0.2002973 30.89794922 -0.22631836 C34.66119605 -0.26284778 38.42410775 -0.2797604 42.1875 -0.29296875 C43.34926758 -0.30845261 44.51103516 -0.32393646 45.70800781 -0.33988953 C52.20067864 -0.34122632 57.1239259 0.15992629 63 3 C63.99 3.99 63.99 3.99 65 5 C62.70351642 4.55551931 60.41846126 4.10978745 58.1552887 3.51602173 C51.741794 1.89555895 45.5582766 1.65717623 38.96484375 1.5859375 C37.84557999 1.56657135 36.72631622 1.5472052 35.57313538 1.5272522 C32.02799905 1.46787777 28.4828295 1.42124029 24.9375 1.375 C22.52147088 1.33678143 20.10545482 1.29772748 17.68945312 1.2578125 C11.79308542 1.16221122 5.89663785 1.07704261 0 1 C0 0.67 0 0.34 0 0 Z " fill="#1651A3" transform="translate(99,235)"/>
<path d="M0 0 C6.88841562 2.3617425 11.46726921 6.72785341 15 13 C17.10471592 17.99596927 17.30481402 22.42390441 17.25 27.75 C17.25773437 28.51699219 17.26546875 29.28398437 17.2734375 30.07421875 C17.25349978 35.74650022 17.25349978 35.74650022 15 38 C15.04640625 37.14019531 15.0928125 36.28039062 15.140625 35.39453125 C15.40649129 26.68741026 14.54807818 19.03360845 11 11 C10.03053145 9.9703735 9.03791391 8.96059081 8 8 C8 7.34 8 6.68 8 6 C6.02 5.34 4.04 4.68 2 4 C2 3.34 2 2.68 2 2 C1.34 2 0.68 2 0 2 C0 1.34 0 0.68 0 0 Z " fill="#275AB8" transform="translate(236,132)"/>
<path d="M0 0 C0.99 0.495 0.99 0.495 2 1 C3.63335192 1.11872573 5.27127354 1.17709092 6.90869141 1.20532227 C8.44005234 1.2352401 8.44005234 1.2352401 10.00234985 1.26576233 C11.10759003 1.28247482 12.2128302 1.29918732 13.3515625 1.31640625 C14.4807309 1.33718735 15.60989929 1.35796844 16.77328491 1.37937927 C20.39045972 1.44491335 24.00770881 1.50377774 27.625 1.5625 C30.07292444 1.60568154 32.52084128 1.64929571 34.96875 1.69335938 C40.9790875 1.80059867 46.98949935 1.90235787 53 2 C53 2.33 53 2.66 53 3 C32.21 3.495 32.21 3.495 11 4 C10.67 4.66 10.34 5.32 10 6 C9.01 6 8.02 6 7 6 C7 5.01 7 4.02 7 3 C5.68 3 4.36 3 3 3 C2.67 3.99 2.34 4.98 2 6 C0 2.25 0 2.25 0 0 Z " fill="#094FCA" transform="translate(97,234)"/>
<path d="M0 0 C2.78750144 1.39375072 2.89266287 3.16244861 4 6 C5.9254644 8.2236068 5.9254644 8.2236068 9 9 C9.66666667 10.33333333 10.33333333 11.66666667 11 13 C11.99 13.33 12.98 13.66 14 14 C11.92578125 14.90234375 11.92578125 14.90234375 9 15 C6.39256366 13.18392567 4.33221184 10.89370853 2.1875 8.5625 C1.2912793 7.62567383 1.2912793 7.62567383 0.37695312 6.66992188 C-1.09588743 5.12638498 -2.54981471 3.56484123 -4 2 C-3.34 1.67 -2.68 1.34 -2 1 C-1.34 1.33 -0.68 1.66 0 2 C0 1.34 0 0.68 0 0 Z " fill="#E0F3FA" transform="translate(236,216)"/>
<path d="M0 0 C0.33 0 0.66 0 1 0 C0.67021516 7.60154046 -1.12782571 13.97319219 -4 21 C-4.33 21 -4.66 21 -5 21 C-5.35591453 14.4485362 -5.0409811 9.84804058 -2 4 C-1.608125 3.195625 -1.21625 2.39125 -0.8125 1.5625 C-0.544375 1.046875 -0.27625 0.53125 0 0 Z " fill="#DFF4FA" transform="translate(295,170)"/>
<path d="M0 0 C5.66129431 4.69766975 10.85228904 9.74723372 16 15 C15.34 15.66 14.68 16.32 14 17 C13.32453125 16.28972656 12.6490625 15.57945312 11.953125 14.84765625 C11.06109375 13.92855469 10.1690625 13.00945312 9.25 12.0625 C8.36828125 11.14597656 7.4865625 10.22945313 6.578125 9.28515625 C4.19823305 7.17570657 3.0900625 6.33932929 0 6 C0 4.02 0 2.04 0 0 Z " fill="#CEE8F7" transform="translate(240,252)"/>
<path d="M0 0 C5.27002208 4.39168507 10.35302051 8.9426379 15 14 C15 14.33 15 14.66 15 15 C12.03 15 9.06 15 6 15 C6.33 14.34 6.66 13.68 7 13 C7.33 12.01 7.66 11.02 8 10 C7.05125 9.278125 6.1025 8.55625 5.125 7.8125 C2.32587438 5.50190102 1.01482442 3.55188548 0 0 Z " fill="#DEF8FC" transform="translate(300,313)"/>
<path d="M0 0 C2 1 2 1 3.4375 4.375 C4.79586006 7.52639533 5.57542396 8.80633596 8 11 C8 11.66 8 12.32 8 13 C8.99 13 9.98 13 11 13 C11.66 14.98 12.32 16.96 13 19 C9.48564945 17.55427155 7.80078506 15.78951874 5.5625 12.75 C2.8041055 9.07015906 -0.0297601 5.51028352 -3 2 C-2.01 2 -1.02 2 0 2 C0 1.34 0 0.68 0 0 Z " fill="#154DBB" transform="translate(275,100)"/>
<path d="M0 0 C1.26403575 3.59566927 0.73990566 6.05299344 -0.25 9.6875 C-0.50265625 10.66074219 -0.7553125 11.63398438 -1.015625 12.63671875 C-1.34046875 13.41660156 -1.6653125 14.19648438 -2 15 C-2.99 15.33 -3.98 15.66 -5 16 C-5.71247732 17.6476038 -6.37400383 19.31763529 -7 21 C-7.95824253 22.36365283 -8.94721175 23.70794169 -10 25 C-10.66 24.67 -11.32 24.34 -12 24 C-11.62488281 23.48953125 -11.24976563 22.9790625 -10.86328125 22.453125 C-5.95269495 15.47687645 -2.69272118 8.07816353 0 0 Z " fill="#295CB4" transform="translate(294,180)"/>
<path d="M0 0 C0.20625 0.5775 0.4125 1.155 0.625 1.75 C2.49984809 4.81793324 4.98124294 6.11327684 8 8 C10 10 10 10 10 13 C10.99 13.33 11.98 13.66 13 14 C12.34 14.66 11.68 15.32 11 16 C6.71 11.71 2.42 7.42 -2 3 C-1.34 2.67 -0.68 2.34 0 2 C0 1.34 0 0.68 0 0 Z " fill="#2C61BC" transform="translate(277,285)"/>
<path d="M0 0 C0.66 0.33 1.32 0.66 2 1 C1.09098826 2.5877405 0.17242076 4.17001197 -0.75 5.75 C-1.26046875 6.63171875 -1.7709375 7.5134375 -2.296875 8.421875 C-3.97712548 10.96537343 -5.77419032 12.92902925 -8 15 C-7.49396008 12.83125748 -7.00016187 11.00032373 -6 9 C-5.34 9 -4.68 9 -4 9 C-4.33 6.69 -4.66 4.38 -5 2 C-2.625 0.9375 -2.625 0.9375 0 0 Z " fill="#DCF2FB" transform="translate(288,192)"/>
<path d="M0 0 C2.475 0.495 2.475 0.495 5 1 C5 1.99 5 2.98 5 4 C6.11375 4.309375 6.11375 4.309375 7.25 4.625 C10.8424014 6.4212007 12.08309537 8.52117309 14 12 C14 12.99 14 13.98 14 15 C11.66265901 12.69152056 9.33081534 10.37756659 7 8.0625 C6.33226562 7.40314453 5.66453125 6.74378906 4.9765625 6.06445312 C4.34492188 5.43603516 3.71328125 4.80761719 3.0625 4.16015625 C2.47597656 3.57886963 1.88945312 2.99758301 1.28515625 2.39868164 C0 1 0 1 0 0 Z " fill="#1E52AE" transform="translate(203,214)"/>
<path d="M0 0 C0.33 0 0.66 0 1 0 C1 2.64 1 5.28 1 8 C0.34 8 -0.32 8 -1 8 C-1.226875 8.598125 -1.45375 9.19625 -1.6875 9.8125 C-3.3611297 12.60188284 -5.08817726 13.6168842 -8 15 C-8.66 14.67 -9.32 14.34 -10 14 C-9.44570312 13.40832031 -8.89140625 12.81664062 -8.3203125 12.20703125 C-7.23363281 11.02173828 -7.23363281 11.02173828 -6.125 9.8125 C-5.40570313 9.03519531 -4.68640625 8.25789062 -3.9453125 7.45703125 C-2.0182908 5.02310224 -0.98699889 2.92463354 0 0 Z " fill="#D7ECF9" transform="translate(251,170)"/>
<path d="M0 0 C1.32 0.33 2.64 0.66 4 1 C4 4.33333333 4 7.66666667 4 11 C1.69 8.69 -0.62 6.38 -3 4 C-2.34 3.67 -1.68 3.34 -1 3 C-0.67 2.01 -0.34 1.02 0 0 Z " fill="#E9F5FB" transform="translate(188,256)"/>
<path d="M0 0 C4 0 4 0 5.81640625 1.609375 C6.39261719 2.31578125 6.96882813 3.0221875 7.5625 3.75 C8.14128906 4.44609375 8.72007812 5.1421875 9.31640625 5.859375 C10.90900862 7.88430794 12.46629012 9.93019093 14 12 C11 12 11 12 8.30078125 9.62890625 C7.29691517 8.61440318 6.30108274 7.59190164 5.3125 6.5625 C4.80138672 6.04623047 4.29027344 5.52996094 3.76367188 4.99804688 C0 1.15397613 0 1.15397613 0 0 Z " fill="#3066B4" transform="translate(262,274)"/>
<path d="M0 0 C-7.47576302 7.86355476 -7.47576302 7.86355476 -12 10 C-12.99 10 -13.98 10 -15 10 C-14.67 9.01 -14.34 8.02 -14 7 C-12.845 6.525625 -11.69 6.05125 -10.5 5.5625 C-6.88944408 4.42547415 -6.88944408 4.42547415 -6.0625 1.8125 C-6.041875 1.214375 -6.02125 0.61625 -6 0 C-2.25 -1.125 -2.25 -1.125 0 0 Z " fill="#1954B3" transform="translate(248,178)"/>
<path d="M0 0 C0 0.99 0 1.98 0 3 C-0.66 3 -1.32 3 -2 3 C-2.0825 3.721875 -2.165 4.44375 -2.25 5.1875 C-3.82908818 11.10908067 -7.95946042 13.90694162 -13 17 C-13.66 16.67 -14.32 16.34 -15 16 C-9.25 11 -9.25 11 -7 11 C-6.566875 9.88625 -6.566875 9.88625 -6.125 8.75 C-3.5 2.33333333 -3.5 2.33333333 0 0 Z " fill="#0D4BD2" transform="translate(285,203)"/>
<path d="M0 0 C2.97 0.495 2.97 0.495 6 1 C6.33 2.65 6.66 4.3 7 6 C7.99 6.33 8.98 6.66 10 7 C11.84499398 8.87617698 13.3683599 10.92737609 15 13 C12 13 12 13 9.08203125 10.41015625 C7.98442437 9.30190591 6.89485507 8.18565055 5.8125 7.0625 C5.25369141 6.49853516 4.69488281 5.93457031 4.11914062 5.35351562 C0 1.15390339 0 1.15390339 0 0 Z " fill="#D4F0FD" transform="translate(214,199)"/>
<path d="M0 0 C4.11583349 3.50608038 6.90567018 8.04628837 9 13 C8.67 13.66 8.34 14.32 8 15 C3.12940147 11.84069284 1.38231181 8.4730557 0 3 C0 2.01 0 1.02 0 0 Z " fill="#D2EDF8" transform="translate(282,114)"/>
<path d="M0 0 C1.12894876 0.93274109 2.25300876 1.87140122 3.375 2.8125 C4.00148437 3.33457031 4.62796875 3.85664063 5.2734375 4.39453125 C7 6 7 6 9 9 C5.65626525 8.44271087 2.96687001 7.64826111 0 6 C0 4.02 0 2.04 0 0 Z " fill="#1B58B7" transform="translate(235,221)"/>
<path d="M0 0 C3.84766567 0.76953313 5.2397053 2.2397053 8 5 C8 5.99 8 6.98 8 8 C8.66 8 9.32 8 10 8 C10.66 9.98 11.32 11.96 12 14 C8.02706005 10.90993559 5.41306539 8.48140715 3 4 C2.01755155 2.65368175 1.02323436 1.31558703 0 0 Z " fill="#1552BD" transform="translate(191,200)"/>
<path d="M0 0 C5.60415672 2.58653387 10.33765613 5.23158828 13 11 C13 11.99 13 12.98 13 14 C10.83031809 11.85714108 8.66416525 9.71091768 6.5 7.5625 C5.87996094 6.95083984 5.25992188 6.33917969 4.62109375 5.70898438 C4.03457031 5.12568359 3.44804687 4.54238281 2.84375 3.94140625 C2.02680664 3.13231812 2.02680664 3.13231812 1.19335938 2.30688477 C0 1 0 1 0 0 Z " fill="#1C4FA9" transform="translate(220,231)"/>
<path d="M0 0 C0.556875 0.28875 1.11375 0.5775 1.6875 0.875 C4.01411753 2.05907564 4.01411753 2.05907564 6.625 2.9375 C9 4 9 4 11 7 C9.906875 6.835 8.81375 6.67 7.6875 6.5 C4.12474127 5.93281816 4.12474127 5.93281816 1 6 C0.4465236 3.92446352 0 2.15634036 0 0 Z " fill="#E8F1FB" transform="translate(249,265)"/>
<path d="M0 0 C1.12894876 0.93274109 2.25300876 1.87140122 3.375 2.8125 C4.00148437 3.33457031 4.62796875 3.85664063 5.2734375 4.39453125 C7 6 7 6 9 9 C5.83119306 9 4.56310828 8.7941758 2 7 C1.375 4.4375 1.375 4.4375 1 2 C0.34 1.67 -0.32 1.34 -1 1 C-0.67 0.67 -0.34 0.34 0 0 Z " fill="#D9F3F7" transform="translate(215,227)"/>
<path d="M0 0 C3.26566506 4.89849759 3.09311493 8.31998909 3 14 C2.01 14.495 2.01 14.495 1 15 C1 13.02 1 11.04 1 9 C0.34 9 -0.32 9 -1 9 C-0.67 6.03 -0.34 3.06 0 0 Z " fill="#0551D2" transform="translate(299,162)"/>
<path d="M0 0 C0.86625 0.4640625 0.86625 0.4640625 1.75 0.9375 C3.90141503 2.09795529 3.90141503 2.09795529 6.0625 2.25 C8 3 8 3 9.75 5.875 C11 9 11 9 11 12 C9.16364422 10.19047409 7.33083792 8.37759362 5.5 6.5625 C4.97535156 6.04623047 4.45070312 5.52996094 3.91015625 4.99804688 C2.58775448 3.68423213 1.29164432 2.34406495 0 1 C0 0.67 0 0.34 0 0 Z " fill="#E1F7FE" transform="translate(205,279)"/>
<path d="M0 0 C0.05395478 1.62463842 0.09277195 3.24978541 0.125 4.875 C0.14820313 5.77992187 0.17140625 6.68484375 0.1953125 7.6171875 C0 10 0 10 -2 12 C-2.66 8.7 -3.32 5.4 -4 2 C-1 0 -1 0 0 0 Z " fill="#044BEE" transform="translate(301,116)"/>
<path d="M0 0 C2.475 0.99 2.475 0.99 5 2 C4.01 2.33 3.02 2.66 2 3 C2 3.99 2 4.98 2 6 C0.35 6 -1.3 6 -3 6 C-3 4.35 -3 2.7 -3 1 C-2.01 1.33 -1.02 1.66 0 2 C0 1.34 0 0.68 0 0 Z " fill="#0353D2" transform="translate(245,324)"/>
<path d="M0 0 C1.32 0 2.64 0 4 0 C5.32 2.31 6.64 4.62 8 7 C5.125 6.6875 5.125 6.6875 2 6 C0 3 0 3 0 0 Z " fill="#F8F8F5" transform="translate(296,313)"/>
<path d="M0 0 C6.78604684 -0.37545751 11.80374824 0.12316883 18 3 C18.66 3.66 19.32 4.32 20 5 C13.33333333 3.66666667 6.66666667 2.33333333 0 1 C0 0.67 0 0.34 0 0 Z " fill="#2254A7" transform="translate(144,235)"/>
<path d="M0 0 C0.33 1.32 0.66 2.64 1 4 C-2 6 -2 6 -3 6 C-4.33568021 6.32380126 -5.66923011 6.65657551 -7 7 C-6.75 4.625 -6.75 4.625 -6 2 C-3.84898936 0.54286376 -2.59713506 0 0 0 Z " fill="#F7F9F5" transform="translate(246,183)"/>
<path d="M0 0 C2.31 1.98 4.62 3.96 7 6 C6.67 6.99 6.34 7.98 6 9 C5.34 9 4.68 9 4 9 C4 8.34 4 7.68 4 7 C3.01 7 2.02 7 1 7 C0.67 4.69 0.34 2.38 0 0 Z " fill="#2A5BCF" transform="translate(232,307)"/>
<path d="M0 0 C4.00453651 1.37298395 6.91685133 3.08350802 10 6 C11.3125 8.75 11.3125 8.75 12 11 C10 9.625 10 9.625 8 8 C8 7.34 8 6.68 8 6 C6.02 5.34 4.04 4.68 2 4 C2 3.34 2 2.68 2 2 C1.34 2 0.68 2 0 2 C0 1.34 0 0.68 0 0 Z " fill="#1F56AE" transform="translate(236,132)"/>
<path d="M0 0 C-2.6598561 3.44216672 -5.90288286 3.99504674 -10 5 C-9 2 -9 2 -6.125 0.25 C-3 -1 -3 -1 0 0 Z " fill="#D9EDF9" transform="translate(260,224)"/>
<path d="M0 0 C1.33897583 0.95043374 2.67105427 1.91059147 4 2.875 C5.11375 3.67550781 5.11375 3.67550781 6.25 4.4921875 C6.8275 4.98976562 7.405 5.48734375 8 6 C8 6.66 8 7.32 8 8 C5.69 7.67 3.38 7.34 1 7 C0.67 4.69 0.34 2.38 0 0 Z " fill="#0B4DD4" transform="translate(227,215)"/>
<path d="M0 0 C0.33 0 0.66 0 1 0 C1.05437607 1.58294782 1.09296271 3.16644256 1.125 4.75 C1.14820313 5.63171875 1.17140625 6.5134375 1.1953125 7.421875 C0.99139502 10.1135858 0.36551721 11.69904974 -1 14 C-2.15837573 10.52487282 -1.77265943 8.86329714 -1.0625 5.3125 C-0.86785156 4.31863281 -0.67320312 3.32476562 -0.47265625 2.30078125 C-0.31667969 1.54152344 -0.16070312 0.78226563 0 0 Z " fill="#EEFDF8" transform="translate(295,160)"/>
<path d="M0 0 C3.39417765 3.12621626 5.6062718 5.56541027 7 10 C6.34 10 5.68 10 5 10 C0 4.76190476 0 4.76190476 0 0 Z " fill="#D9F3F5" transform="translate(260,272)"/>
<path d="M0 0 C3.71888239 0.50712033 6.73454239 1.11608215 10 3 C3.375 4.25 3.375 4.25 0 2 C0 1.34 0 0.68 0 0 Z " fill="#064EED" transform="translate(228,132)"/>
<path d="M0 0 C3.57104439 1.87949705 5.54744301 3.17053157 7 7 C6.01 7.33 5.02 7.66 4 8 C3.67 7.34 3.34 6.68 3 6 C3.33 5.34 3.66 4.68 4 4 C2.68 3.67 1.36 3.34 0 3 C0 2.01 0 1.02 0 0 Z " fill="#F5FBF3" transform="translate(198,213)"/>
<path d="M0 0 C4.67692308 1.47692308 4.67692308 1.47692308 6.3125 4.125 C6.539375 4.74375 6.76625 5.3625 7 6 C4.61435923 5.42415568 2.33317216 4.77772405 0 4 C0 2.68 0 1.36 0 0 Z " fill="#F7FBF4" transform="translate(217,288)"/>
<path d="M0 0 C1.1446875 0.2475 1.1446875 0.2475 2.3125 0.5 C5.03596236 1.09145396 5.03596236 1.09145396 8 1 C7.49396008 3.16874252 7.00016187 4.99967627 6 7 C4.02 4.69 2.04 2.38 0 0 Z " fill="#E1F0FB" transform="translate(174,248)"/>
<path d="M0 0 C-1.28519565 2.86697492 -2.57129254 4.97607712 -5 7 C-5.66 7 -6.32 7 -7 7 C-7 6.34 -7 5.68 -7 5 C-6.34 5 -5.68 5 -5 5 C-5 3.68 -5 2.36 -5 1 C-2 0 -2 0 0 0 Z " fill="#C8E6F7" transform="translate(278,209)"/>
<path d="M0 0 C0 2.31 0 4.62 0 7 C-0.99 7 -1.98 7 -3 7 C-3 5.02 -3 3.04 -3 1 C-1 0 -1 0 0 0 Z " fill="#0452CD" transform="translate(252,156)"/>
<path d="M0 0 C3.45925163 1.2491742 6.14693203 2.67527795 9 5 C8.67 5.99 8.34 6.98 8 8 C6.66372225 6.85760183 5.33104612 5.71098945 4 4.5625 C3.2575 3.92441406 2.515 3.28632812 1.75 2.62890625 C1.1725 2.09136719 0.595 1.55382812 0 1 C0 0.67 0 0.34 0 0 Z " fill="#3061B9" transform="translate(263,95)"/>
<path d="M0 0 C2.31 1.98 4.62 3.96 7 6 C6.34 6.66 5.68 7.32 5 8 C2.5 5.6875 2.5 5.6875 0 3 C0 2.01 0 1.02 0 0 Z " fill="#C6E5F6" transform="translate(233,245)"/>
<path d="M0 0 C1.32 0.33 2.64 0.66 4 1 C3.67 1.66 3.34 2.32 3 3 C2.01 3.33 1.02 3.66 0 4 C0 4.66 0 5.32 0 6 C-0.66 6 -1.32 6 -2 6 C-2.33 4.68 -2.66 3.36 -3 2 C-2.01 2 -1.02 2 0 2 C0 1.34 0 0.68 0 0 Z " fill="#0B53E7" transform="translate(275,96)"/>
<path d="M0 0 C1.11375 0.598125 2.2275 1.19625 3.375 1.8125 C4.00148438 2.14894531 4.62796875 2.48539062 5.2734375 2.83203125 C7 4 7 4 9 7 C5.9168649 5.80100302 2.93720508 4.52299523 0 3 C0 2.01 0 1.02 0 0 Z " fill="#CCEBFC" transform="translate(260,94)"/>
<path d="M0 0 C1.98 0.99 1.98 0.99 4 2 C4 3.32 4 4.64 4 6 C2.68 6 1.36 6 0 6 C0 4.02 0 2.04 0 0 Z " fill="#EBF6F9" transform="translate(256,92)"/>
<path d="M0 0 C7.75 -0.125 7.75 -0.125 10 1 C10 1.99 10 2.98 10 4 C6.7 3.01 3.4 2.02 0 1 C0 0.67 0 0.34 0 0 Z " fill="#CFE7F8" transform="translate(154,235)"/>
<path d="M0 0 C2.31 0.33 4.62 0.66 7 1 C7.33 1.99 7.66 2.98 8 4 C5.36 3.34 2.72 2.68 0 2 C0 1.34 0 0.68 0 0 Z " fill="#D7F3FB" transform="translate(228,127)"/>
<path d="M0 0 C-0.33 0.99 -0.66 1.98 -1 3 C-3.0625 3.6875 -3.0625 3.6875 -5 4 C-5.33 2.68 -5.66 1.36 -6 0 C-3.50907189 -1.24546405 -2.58919267 -0.7767578 0 0 Z " fill="#EFFBF2" transform="translate(251,226)"/>
<path d="M0 0 C-1.28965176 1.37562854 -2.62689293 2.70766393 -4 4 C-4.66 4 -5.32 4 -6 4 C-6.33 3.01 -6.66 2.02 -7 1 C-4.53721199 -0.231394 -2.7204945 -0.07159196 0 0 Z " fill="#D6F1FB" transform="translate(266,220)"/>
<path d="M0 0 C3.71599191 -0.20086443 4.77208445 -0.1519437 8 2 C8 2.99 8 3.98 8 5 C4.62496331 3.8141763 2.35277269 2.72426311 0 0 Z " fill="#C4E5F4" transform="translate(236,131)"/>
</svg>
